<?xml version="1.0" encoding="UTF-8" standalone="no"?>
<svg
   fill="none"
   height="30"
   viewBox="0 0 95.577339 30"
   width="95.577339"
   version="1.1"
   id="svg1"
   sodipodi:docname="logo-scite.svg"
   inkscape:version="1.4 (e7c3feb100, 2024-10-09)"
   xmlns:inkscape="http://www.inkscape.org/namespaces/inkscape"
   xmlns:sodipodi="http://sodipodi.sourceforge.net/DTD/sodipodi-0.dtd"
   xmlns="http://www.w3.org/2000/svg"
   xmlns:svg="http://www.w3.org/2000/svg">
  <defs
     id="defs1" />
  <sodipodi:namedview
     id="namedview1"
     pagecolor="#ffffff"
     bordercolor="#000000"
     borderopacity="0.25"
     inkscape:showpageshadow="2"
     inkscape:pageopacity="0.0"
     inkscape:pagecheckerboard="0"
     inkscape:deskcolor="#d1d1d1"
     inkscape:zoom="10.592105"
     inkscape:cx="46.213665"
     inkscape:cy="23.27205"
     inkscape:window-width="2560"
     inkscape:window-height="1368"
     inkscape:window-x="1600"
     inkscape:window-y="0"
     inkscape:window-maximized="1"
     inkscape:current-layer="svg1" />
  <path
     d="m 4.047337,20.378699 c 0.047337,0.686391 0.3313609,1.301775 0.8520709,1.846154 0.52071,0.544379 1.3017751,0.816568 2.3431951,0.816568 0.7810651,0 1.3609467,-0.16568 1.7396449,-0.497041 0.3786982,-0.35503 0.5680473,-0.769231 0.5680473,-1.242604 0,-0.402367 -0.1420119,-0.745562 -0.4260355,-1.029586 C 8.840236,19.964498 8.355029,19.739646 7.6686385,19.597634 L 5.3609464,19.06509 C 3.6568045,18.686392 2.414201,18.035504 1.633136,17.112427 0.8520709,16.165682 0.46153843,15.076925 0.46153843,13.846155 c 0,-0.781065 0.16568046,-1.514792 0.49704137,-2.201183 0.3313609,-0.710059 0.781065,-1.313609 1.3491123,-1.810651 0.591716,-0.52071 1.2781065,-0.9349112 2.0591715,-1.2426035 0.8047337,-0.3076922 1.6804732,-0.4615384 2.6272187,-0.4615384 1.2307692,0 2.2721892,0.1775148 3.1242597,0.5325444 0.852071,0.3313609 1.538462,0.7573964 2.059172,1.2781061 0.544379,0.5207104 0.946745,1.0769234 1.2071,1.6686394 0.260355,0.568047 0.414202,1.088758 0.461539,1.56213 L 9.905325,14.059173 C 9.857987,13.798818 9.7751472,13.538463 9.656804,13.278108 9.5621295,12.994084 9.396449,12.733729 9.1597626,12.497043 8.9230763,12.260357 8.6272183,12.071008 8.2721887,11.928996 7.9408278,11.786984 7.5266267,11.715978 7.0295853,11.715978 c -0.6153846,0 -1.1479289,0.165681 -1.597633,0.497041 -0.4260355,0.331361 -0.6390532,0.745563 -0.6390532,1.242604 0,0.426035 0.1420118,0.769231 0.4260354,1.029586 0.3076923,0.260355 0.6982248,0.437869 1.1715976,0.532544 l 2.4852069,0.532544 c 1.727811,0.35503 3.017751,1.017752 3.869822,1.988166 0.87574,0.970414 1.31361,2.094674 1.31361,3.372781 0,0.710059 -0.142012,1.408284 -0.426036,2.094674 -0.260355,0.686391 -0.674556,1.301775 -1.242603,1.846154 -0.568048,0.544378 -1.278107,0.982248 -2.130178,1.313609 -0.8520707,0.331361 -1.8461534,0.497042 -2.982248,0.497042 -1.3254437,0 -2.4378697,-0.18935 -3.3372779,-0.568048 C 3.0414199,25.715977 2.3076921,25.254439 1.7396448,24.71006 1.1715975,24.165681 0.74556208,23.5858 0.46153843,22.970415 0.20118342,22.331362 0.04733727,21.763315 0,21.266273 Z m 21.585206,-7.881656 c -0.615385,0 -1.195267,0.106509 -1.739645,0.319527 -0.52071,0.213017 -0.982249,0.532544 -1.384616,0.95858 -0.402366,0.402366 -0.721893,0.911242 -0.958579,1.526627 -0.236687,0.615384 -0.35503,1.313609 -0.35503,2.094674 0,0.781065 0.118343,1.47929 0.35503,2.094674 0.236686,0.615385 0.556213,1.136095 0.958579,1.56213 0.426036,0.426036 0.899409,0.745563 1.420119,0.95858 0.544378,0.213018 1.12426,0.319527 1.739644,0.319527 0.591716,0 1.112426,-0.08284 1.562131,-0.248521 0.473372,-0.189349 0.875739,-0.426035 1.2071,-0.710059 0.331361,-0.284024 0.591716,-0.60355 0.781065,-0.95858 0.213018,-0.355029 0.366864,-0.698225 0.461538,-1.029585 l 4.153846,1.384615 c -0.189349,0.733728 -0.508875,1.455621 -0.958579,2.16568 -0.426036,0.686391 -0.982249,1.31361 -1.668639,1.881657 -0.686391,0.544378 -1.491125,0.982248 -2.414201,1.313609 -0.923077,0.35503 -1.964497,0.532545 -3.124261,0.532545 -1.278106,0 -2.485206,-0.224853 -3.621301,-0.674557 -1.112426,-0.473372 -2.08284,-1.12426 -2.911242,-1.952662 -0.828403,-0.828403 -1.47929,-1.798817 -1.952663,-2.911243 -0.473373,-1.136094 -0.710059,-2.378698 -0.710059,-3.72781 0,-1.349112 0.224852,-2.591716 0.674556,-3.72781 0.473373,-1.136095 1.112426,-2.106509 1.91716,-2.911243 0.828402,-0.8284024 1.786982,-1.4674557 2.875739,-1.9171598 1.112426,-0.4733727 2.307692,-0.7100591 3.585799,-0.7100591 1.183431,0 2.236686,0.1775148 3.159763,0.5325444 0.946745,0.3313609 1.763313,0.7692307 2.449704,1.3136091 0.68639,0.5443794 1.242603,1.1715984 1.668639,1.8816574 0.426035,0.710059 0.733727,1.431952 0.923076,2.16568 l -4.224851,1.420118 C 29.289347,14.710061 28.875146,14.035505 28.259761,13.42012 27.668045,12.804735 26.792306,12.497043 25.632543,12.497043 Z m 11.67354,13.633135 V 8.6627235 h 4.721894 V 26.130178 Z M 36.738036,2.9467475 c 0,-0.8284023 0.284024,-1.5266271 0.852071,-2.09467436 C 38.158154,0.28402416 38.844545,0 39.649279,0 c 0.828402,0 1.514792,0.28402416 2.059171,0.85207314 0.568047,0.56804726 0.852071,1.26627206 0.852071,2.09467436 0,0.7810651 -0.284024,1.4556212 -0.852071,2.0236685 -0.544379,0.5680473 -1.230769,0.852071 -2.059171,0.852071 -0.804734,0 -1.491125,-0.2840237 -2.059172,-0.852071 C 37.02206,4.4023687 36.738036,3.7278126 36.738036,2.9467475 Z m 16.167708,5.715976 h 3.514793 v 4.1893495 h -3.514793 v 7.313609 c 0,0.757396 0.165681,1.28994 0.497042,1.597633 0.355029,0.284023 0.875739,0.426035 1.56213,0.426035 0.284023,0 0.568047,-0.01183 0.852071,-0.0355 0.284023,-0.02367 0.485207,-0.05917 0.60355,-0.106509 v 3.905325 c -0.213018,0.09468 -0.544379,0.18935 -0.994083,0.284024 -0.426035,0.09467 -0.982248,0.142012 -1.668639,0.142012 -1.704142,0 -3.053254,-0.473373 -4.047337,-1.420118 -0.994083,-0.946746 -1.491124,-2.27219 -1.491124,-3.976331 v -8.13018 H 45.059591 V 8.6627235 h 0.887574 c 0.923077,0 1.597633,-0.2603551 2.023668,-0.7810651 0.449704,-0.5443786 0.674557,-1.2071005 0.674557,-1.9881655 v -2.449704 h 4.260354 z m 18.60693,6.7455615 c -0.02367,-0.426035 -0.118343,-0.840236 -0.284023,-1.242603 -0.142012,-0.426035 -0.378698,-0.792899 -0.710059,-1.100592 -0.307693,-0.331361 -0.710059,-0.591716 -1.207101,-0.781065 -0.473373,-0.213017 -1.04142,-0.319526 -1.704142,-0.319526 -0.615384,0 -1.159763,0.106509 -1.633136,0.319526 -0.473372,0.213018 -0.875739,0.485207 -1.2071,0.816568 -0.331361,0.331361 -0.591716,0.698225 -0.781065,1.100592 -0.165681,0.402367 -0.260355,0.804734 -0.284024,1.2071 z m 4.402367,5.715976 c -0.213018,0.757397 -0.556213,1.47929 -1.029586,2.165681 -0.449704,0.662722 -1.005917,1.242603 -1.668639,1.739645 -0.662722,0.497041 -1.443787,0.887573 -2.343195,1.171597 -0.875739,0.307692 -1.846154,0.461539 -2.911242,0.461539 -1.207101,0 -2.35503,-0.201184 -3.443787,-0.603551 -1.088757,-0.426035 -2.047337,-1.04142 -2.875739,-1.846153 -0.828403,-0.804734 -1.491125,-1.786983 -1.988166,-2.946746 -0.473373,-1.159763 -0.710059,-2.473372 -0.710059,-3.940828 0,-1.396449 0.236686,-2.662722 0.710059,-3.798816 0.473373,-1.136095 1.100592,-2.094675 1.881657,-2.87574 0.804733,-0.8047337 1.72781,-1.4201182 2.76923,-1.8461537 1.04142,-0.4497041 2.118343,-0.6745562 3.230769,-0.6745562 2.721894,0 4.840237,0.8047337 6.355029,2.4142019 1.514793,1.609467 2.27219,3.822484 2.27219,6.639052 0,0.331361 -0.01184,0.650888 -0.0355,0.95858 -0.02367,0.284024 -0.0355,0.449704 -0.0355,0.497041 H 63.595515 c 0.02367,0.568048 0.153846,1.100592 0.390533,1.597634 0.260355,0.473372 0.579881,0.887573 0.95858,1.242603 0.402366,0.35503 0.863905,0.639053 1.384615,0.852071 0.52071,0.189349 1.076923,0.284024 1.668639,0.284024 1.112426,0 1.976331,-0.248521 2.591716,-0.745563 0.639053,-0.497041 1.100591,-1.136094 1.384615,-1.917159 z M 77.435582,30 V 26.130178 H 95.577339 V 30 Z"
     fill="#0062ff"
     id="path1"
     style="stroke-width:0.845308" />
</svg>
